<?xml version="1.0" standalone="no"?>
<!DOCTYPE svg PUBLIC "-//W3C//DTD SVG 20010904//EN"
 "http://www.w3.org/TR/2001/REC-SVG-20010904/DTD/svg10.dtd">
<svg version="1.0" xmlns="http://www.w3.org/2000/svg"
 width="736.000000pt" height="736.000000pt" viewBox="0 0 736.000000 736.000000"
 preserveAspectRatio="xMidYMid meet">

<g transform="translate(0.000000,736.000000) scale(0.100000,-0.100000)"
fill="#000000" stroke="none">
<path d="M3580 5003 c-288 -43 -489 -115 -695 -247 -233 -151 -391 -330 -491
-556 -72 -165 -88 -246 -89 -460 0 -191 3 -214 52 -380 36 -126 134 -332 149
-317 2 2 -4 28 -13 58 -14 42 -17 87 -17 199 1 131 4 155 31 246 40 133 76
213 164 364 74 127 191 273 323 405 195 194 356 301 646 427 49 22 99 38 175
59 76 21 361 18 445 -5 255 -69 416 -297 397 -559 -22 -295 -191 -467 -518
-528 -36 -6 -78 -9 -93 -5 -15 4 -58 37 -94 74 -112 112 -157 225 -208 522
-23 136 -41 201 -45 162 -1 -7 -2 -15 -3 -19 -1 -5 -6 -33 -10 -63 -24 -174
-63 -342 -101 -440 -49 -122 -170 -240 -247 -240 -73 0 -235 -27 -333 -56 -80
-24 -208 -91 -257 -134 -105 -92 -143 -195 -135 -364 7 -155 42 -247 145 -384
164 -218 478 -364 867 -402 298 -30 676 69 940 245 319 212 505 516 545 894
30 277 -73 650 -245 890 -41 56 -65 70 -35 19 10 -18 31 -69 46 -113 24 -72
27 -95 28 -230 1 -157 -6 -206 -52 -355 -88 -290 -305 -601 -571 -821 -334
-276 -715 -413 -1022 -370 -296 42 -513 219 -600 486 -28 85 -32 234 -10 305
35 109 107 186 236 252 125 64 272 98 420 98 79 0 81 -1 130 -40 61 -50 87
-80 125 -145 42 -73 78 -193 100 -335 36 -228 44 -270 52 -270 8 0 9 7 43 226
44 286 105 426 228 525 32 26 60 37 126 50 154 30 185 39 268 80 140 67 230
172 289 334 25 71 26 276 0 360 -49 165 -182 325 -333 403 -149 77 -291 122
-468 147 -93 14 -226 17 -285 8z"/>
</g>
</svg>
