<svg xmlns="http://www.w3.org/2000/svg" transform="rotate(0)" viewBox="0 0 736 736">
  <path d="M358.0002 235.6991c-28.7997 4.3007-48.8998 11.5012-69.5005 24.7002-23.2993 15.1003-39.1012 32.9998-49.101 55.5999-7.2005 16.5011-8.8001 24.5996-8.9007 46 0 19.0992.2993 21.4004 5.2011 37.9997 3.599 12.6003 13.4001 33.201 14.8991 31.6995.2012-.2012-.3999-2.7993-1.3003-5.7997-1.4009-4.2001-1.7002-8.6995-1.7002-19.899.1006-13.1008.3999-15.5002 3.101-24.5996 3.9989-13.2995 7.6004-21.2998 16.4005-36.4001 7.3993-12.7009 19.0992-27.3007 32.3006-40.4996 19.4991-19.401 35.6003-30.0999 64.6012-42.7003 4.8993-2.2006 9.8992-3.8002 17.4996-5.9003s36.1008-1.8007 44.501.5005c25.4999 6.9012 41.6012 29.7001 39.6998 55.8992-2.2006 29.4989-19.0992 46.6992-51.7997 52.8006-3.599.6011-7.7991.9004-9.3006.5005s-5.7997-3.6996-9.4012-7.3993c-11.1995-11.1995-15.6989-22.4995-20.7994-52.1996-2.3012-13.5988-4.0995-20.1002-4.4994-16.1994-.1006.6992-.2012 1.499-.2993 1.8989a127.5733 127.5733 0 0 0-1.001 6.3002c-2.3994 17.399-6.3002 34.1995-10.1004 44.0005-4.8993 12.2004-16.9991 24.001-24.7002 24.001-7.3011 0-23.5005 2.7011-33.2991 5.601-8.0003 2.3994-20.7994 9.0994-25.7011 13.4001-10.5003 9.2-14.3005 19.4991-13.5007 36.4001.6992 15.5002 4.2001 24.7002 14.4992 38.3996 16.4005 21.8003 47.8007 36.4001 86.7008 40.2003 29.8006 3.0004 67.5991-6.9012 93.9995-24.499 31.9007-21.1993 50.4994-51.601 54.5008-89.3995 3.0004-27.7006-7.3011-65.0011-24.499-88.9996-4.0995-5.601-6.4989-6.9994-3.5009-1.8989 1.001 1.8007 3.101 6.9012 4.6 11.3001 2.3994 7.2005 2.7011 9.4993 2.7993 23 .1006 15.6989-.6011 20.6006-5.2011 35.4997-8.8001 29.0009-30.4998 60.0993-57.0989 82.1008-33.3997 27.6-71.4999 41.2994-102.201 37.0012-29.5995-4.2001-51.2992-21.9009-60.0012-48.6005-2.7993-8.5008-3.1991-23.3999-1.001-30.4998 3.5009-10.9002 10.699-18.6012 23.6011-25.2006 12.4997-6.4007 27.2001-9.8011 42.0011-9.8011 7.8997 0 8.1009.1006 13.0002 3.9989 6.099 4.9999 8.6995 8.0003 12.4997 14.4992 4.2001 7.3011 7.7991 19.3004 9.9998 33.5003 3.599 22.7988 4.3988 26.9989 5.2011 26.9989s.9004-.6992 4.3007-22.6001c4.3988-28.601 10.5003-42.5997 22.7988-52.4989 3.1991-2.6005 6.0009-3.6996 12.6003-4.9999 15.3996-3.0004 18.5006-3.9008 26.8002-8.0003 14.0012-6.7001 23-17.2003 28.9003-33.3997 2.4999-7.0999 2.6005-27.6 0-36.0002-4.8993-16.5011-18.1988-32.4993-33.2991-40.3009-14.8991-7.701-29.099-12.2004-46.7998-14.7004-9.3006-1.4009-22.6001-1.7002-28.5004-.7998"/>
</svg>
